<?xml version="1.0" encoding="utf-8"?>
<!-- Generator: Adobe Illustrator 22.1.0, SVG Export Plug-In . SVG Version: 6.00 Build 0)  -->
<svg version="1.1" id="Layer_1" xmlns="http://www.w3.org/2000/svg" xmlns:xlink="http://www.w3.org/1999/xlink" x="0px" y="0px"
	 viewBox="0 0 536 431" style="enable-background:new 0 0 536 431;" xml:space="preserve">
<style type="text/css">
	.st0{fill:none;stroke:#808080;stroke-width:0.5;stroke-miterlimit:10;}
	.st1{opacity:0.7;}
	.st2{fill:#E99498;}
</style>
<polyline class="st0" points="75,239.6 75,383 476.3,383 "/>
<polyline class="st0" points="477,239.6 477,87 75.7,87 "/>
<g class="st1">
	<g>
		<path class="st2" d="M94,199.6c34.6,8.3,69.7,14.3,105,17.9c1.6,0.2,5.4-0.2,6.8,0.7c2.2,1.3,1.3,4.3,1.2,6.4
			c-0.2,4.2-0.4,8.4-0.5,12.6c-0.2,8.4-0.1,16.9,0.3,25.3c0.8,16.8,2.9,33.6,6.5,50c4,18.6,9.8,36.7,17.5,54.1
			c0.2,0.4,1.8,0,1.9-0.4c19.2-72.1,36.7-144.6,51.1-217.9c4-20.5,7.8-41.1,11.3-61.7c-0.6,0.1-1.2,0.3-1.9,0.4
			c-1.4,25.3,5.6,49.6,13.2,73.4c7.8,24.4,16.3,48.6,25.4,72.6c0.2,0.4,1.4-0.1,1.7-0.2c17.4-12.8,41.5-10.2,61.9-11.3
			c21.8-1.3,43.6-3.5,65.2-6.5c0.8-0.1,1.7-0.9,0.3-0.7c-25.4,3.6-50.9,5.9-76.5,7c-18,0.8-37.2,0.3-52.4,11.5
			c0.6-0.1,1.1-0.1,1.7-0.2c-9.1-24-17.6-48.2-25.4-72.6c-7.6-23.8-14.7-48.1-13.2-73.4c0-0.3-1.8,0-1.9,0.4
			c-12.5,73.2-28.4,145.9-46.5,217.9c-5.2,20.6-10.5,41.1-16,61.6c0.6-0.1,1.2-0.3,1.9-0.4c-20.5-46.6-27-97.9-23.4-148.4
			c0-0.1-0.3-0.1-0.3-0.1c-38.2-3.5-76.1-9.7-113.5-18.7C95.1,198.8,93.4,199.5,94,199.6L94,199.6z"/>
	</g>
</g>
</svg>
